<?xml version="1.0" encoding="utf-8"?>
<!-- Generator: Adobe Illustrator 21.0.2, SVG Export Plug-In . SVG Version: 6.00 Build 0)  -->
<svg version="1.1" id="Layer_1" xmlns="http://www.w3.org/2000/svg" xmlns:xlink="http://www.w3.org/1999/xlink" x="0px" y="0px"
	 viewBox="0 0 792 612" style="enable-background:new 0 0 792 612;" xml:space="preserve">
<style type="text/css">
	.st0{fill:none;stroke:#000000;stroke-width:2;stroke-miterlimit:10;}
</style>
<circle class="st0" cx="407.8" cy="301.2" r="138.8"/>
<path class="st0" d="M397.1,162.9c0,0-19.3,26.8,18.6,44.6c0,0,29.3,6.6-9.8,26.9c0,0-12.7,5.7,1.9,15.6c0,0,2.4,24.1-15.1,24.1
	c0,0-25-27.4-39.6-19.3c-14.6,8-13.7,33,7.5,27.4c0,0,13.2-8.5,13.2,14.1s22.2,26.4,22.2,26.4s46.2,22.2,26.4,47.6
	c0,0-28.3,12.3-32.5,33c0,0-13.7,14.6-18.4-0.9c0,0,2.4-13.2-1.9-19.3s0.9-16.5,0.9-16.5s-3.3-7.5-19.3-15.6
	c-16-8,12.3-23.6,12.3-23.6s2.8-15.6-11.3-20.3c-14.1-4.7-47.6-7.1-53.3-61.8c0,0,0-13.7-2.4-27.8"/>
<path class="st0" d="M445,167.9c0,0,39.1,49.1,24.1,72.2c0,0-15.1,15.6-21.2,16c-6.1,0.5-25,9.9-16,33c0,0,23.6,3.8,23.6,17.5
	s6.1,19.3,26.4,19.3c0,0,17.9,12.3,3.3,21.2c-14.6,9-5.2,14.1,3.3,19.8c0,0-0.5,14.1-2.4,14.1c-1.9,0-0.9,7.4,3.9,10.9
	c4.8,3.5,11.2,11.4,9.2,13.6"/>
</svg>
