<?xml version="1.0" encoding="utf-8"?>
<!-- Generator: Adobe Illustrator 21.0.2, SVG Export Plug-In . SVG Version: 6.00 Build 0)  -->
<svg version="1.1" id="Layer_1" xmlns="http://www.w3.org/2000/svg" xmlns:xlink="http://www.w3.org/1999/xlink" x="0px" y="0px"
	 viewBox="0 0 613.6 191.4" style="enable-background:new 0 0 613.6 191.4;" xml:space="preserve">
<style type="text/css">
	.st0{fill:#231F20;}
	.st1{fill:#13433A;}
</style>
<g>
	<path class="st0" d="M184.6,17.6L201,153.7c0.9,6.5,1.8,12.7,1.8,18.7h-28.4l-10.6-88.5l-2.8-31h-0.9l-28.6,119.4H94.8L72.1,83.7
		l-6.5-31h-0.9L52.3,172.4h-28c0-6,1.4-13.9,2.3-21L42.6,17.6h42.3l23.3,89.4l5.8,29.1h1.1l27.3-118.5H184.6z"/>
	<path class="st0" d="M300.9,15c17.1,0,31,4.4,43.7,11.5L333.8,49c-10.9-5.1-21.3-7.9-33.3-7.9c-13.6,0-22.4,4.6-28.9,11.1
		c-11.3,10.6-15.7,26.3-15.7,44.1c0,27,10.9,52.7,43.7,52.7c5.3,0,11.3-0.7,17.3-1.6V95.7h28.6v68.4c-14.1,6.9-31.2,10.9-48.7,10.9
		c-48.1,0-73.2-32.3-73.2-75.8C223.6,55.9,248.7,15,300.9,15z"/>
	<path class="st1" d="M467.4,17.6l-0.7,13.6H396v59.8h57.5v13.6H396v67.7h-15.2V17.6H467.4z"/>
	<path class="st1" d="M504.2,17.6l38.3,62.8h0.2l41.1-62.8H600c-1.2,3.2-3.2,6.7-5.8,10.9l-42.1,64.2l41.8,67
		c2.8,4.4,5.5,9.2,6.9,12.7h-17.6L542,104.9h-0.2l-43.9,67.5h-16.4c1.4-3.5,4.2-8.3,7.2-12.7l43.7-66.5l-40.2-64.9
		c-2.1-3.5-4.6-7.6-5.5-10.6H504.2z"/>
</g>
</svg>
