<?xml version="1.0" encoding="utf-8"?>
<!-- Generator: Adobe Illustrator 21.0.2, SVG Export Plug-In . SVG Version: 6.00 Build 0)  -->
<svg version="1.1" id="Layer_1" xmlns="http://www.w3.org/2000/svg" xmlns:xlink="http://www.w3.org/1999/xlink" x="0px" y="0px"
	 viewBox="0 0 525.6 364.4" style="enable-background:new 0 0 525.6 364.4;" xml:space="preserve">
<style type="text/css">
	.st0{fill:none;stroke:#000000;stroke-width:2.1537;stroke-miterlimit:10;}
	.st1{fill:#FFFFFF;stroke:#000000;stroke-width:2.1537;stroke-miterlimit:10;}
	.st2{fill:none;stroke:#000000;stroke-width:2.1537;stroke-linecap:round;stroke-linejoin:round;stroke-miterlimit:10;}
</style>
<g>
	<path class="st0" d="M463.6,304.6H62c-9.9,0-17.9-8-17.9-17.9V17.9C44.1,8,52.1,0,62,0h401.7c9.9,0,17.9,8,17.9,17.9v268.8
		C481.5,296.6,473.5,304.6,463.6,304.6z"/>
	<rect x="65.6" y="23.3" class="st1" width="396.1" height="228.7"/>
	<polygon class="st0" points="215.9,314.5 313,314.5 313,336.5 341.4,365 188.4,365 216,337.3 	"/>
</g>
<g>
	<circle class="st0" cx="328" cy="95" r="23.5"/>
	<line class="st2" x1="174.1" y1="147.5" x2="291.5" y2="103"/>
	<line class="st2" x1="312" y1="122.4" x2="223.5" y2="211.5"/>
	<line class="st2" x1="227.8" y1="161.7" x2="297.4" y2="115.6"/>
</g>
</svg>
