<?xml version="1.0" encoding="utf-8"?>
<!-- Generator: Adobe Illustrator 21.0.2, SVG Export Plug-In . SVG Version: 6.00 Build 0)  -->
<svg version="1.1" id="Layer_1" xmlns="http://www.w3.org/2000/svg" xmlns:xlink="http://www.w3.org/1999/xlink" x="0px" y="0px"
	 viewBox="0 0 359.4 311.6" style="enable-background:new 0 0 359.4 311.6;" xml:space="preserve">
<style type="text/css">
	.st0{fill:#FFFFFF;stroke:#000000;stroke-width:2;stroke-miterlimit:10;}
	.st1{fill:none;stroke:#000000;stroke-width:2;stroke-miterlimit:10;}
</style>
<g>
	<g>
		<circle class="st0" cx="76.9" cy="82.6" r="65.1"/>
		<circle class="st0" cx="181.2" cy="83.1" r="65.1"/>
		<rect x="252.2" y="162" class="st1" width="14.2" height="81.7"/>
		<polygon class="st0" points="21.5,139.9 236.4,139.9 236.4,267 162.2,267 162.2,240.6 97,240.6 97,268.3 21.5,268.3 		"/>
		<polygon class="st1" points="279.4,167.9 279.4,239 345.8,278.1 345.8,127.6 		"/>
		<rect x="105.9" y="249.4" class="st1" width="47.9" height="44.1"/>
	</g>
	<circle class="st1" cx="75" cy="84" r="14.7"/>
	<circle class="st1" cx="184.4" cy="84" r="14.7"/>
	<path class="st0" d="M219.3,175.4h-180c-2.9,0-5.2-2.3-5.2-5.2v0c0-2.9,2.3-5.2,5.2-5.2h180c2.9,0,5.2,2.3,5.2,5.2v0
		C224.4,173.1,222.1,175.4,219.3,175.4z"/>
	<path class="st0" d="M58.3,207.8H38.6c-2.7,0-4.9-2.2-4.9-4.9v0c0-2.7,2.2-4.9,4.9-4.9h19.7c2.7,0,4.9,2.2,4.9,4.9v0
		C63.3,205.6,61,207.8,58.3,207.8z"/>
	<path class="st0" d="M58.3,228.7H38.6c-2.7,0-4.9-2.2-4.9-4.9v0c0-2.7,2.2-4.9,4.9-4.9h19.7c2.7,0,4.9,2.2,4.9,4.9v0
		C63.3,226.5,61,228.7,58.3,228.7z"/>
</g>
</svg>
