<?xml version="1.0" encoding="utf-8"?>
<!-- Generator: Adobe Illustrator 21.0.2, SVG Export Plug-In . SVG Version: 6.00 Build 0)  -->
<svg version="1.1" id="Layer_1" xmlns="http://www.w3.org/2000/svg" xmlns:xlink="http://www.w3.org/1999/xlink" x="0px" y="0px"
	 viewBox="0 0 792 612" style="enable-background:new 0 0 792 612;" xml:space="preserve">
<style type="text/css">
	.st0{fill:none;stroke:#000000;stroke-width:2;stroke-miterlimit:10;}
</style>
<path class="st0" d="M366.1,203.9c0,0,27,17,65,0s117-66,174,22s78,304.1-7,285.1c0,0-39.3-11.4-95.3-83.7c0,0-8.1-5.1-21.4-5.6
	H318.1c0,0-14.8-0.5-22.4,10.2c-7.6,10.7-70.8,84-104.3,80.9c-33.6-3.1-54.9-54.3-40.7-162.9S228.9,185,253.5,179.8
	S303.4,164,366.1,203.9z"/>
<circle class="st0" cx="501.9" cy="259.8" r="27.8"/>
<circle class="st0" cx="569.8" cy="300" r="27.8"/>
<circle class="st0" cx="500.7" cy="335.1" r="27.8"/>
<polygon class="st0" points="270.6,275.6 270.6,238.1 310.5,238.1 310.5,276.3 349.4,276.3 349.4,316.2 310.8,316.2 310.8,353.7 
	269.9,353.7 269.9,316.2 232.4,316.2 232.4,275.2 "/>
</svg>
