<?xml version="1.0" encoding="utf-8"?>
<!-- Generator: Adobe Illustrator 21.0.2, SVG Export Plug-In . SVG Version: 6.00 Build 0)  -->
<svg version="1.1" id="Layer_1" xmlns="http://www.w3.org/2000/svg" xmlns:xlink="http://www.w3.org/1999/xlink" x="0px" y="0px"
	 viewBox="0 0 525.6 364.4" style="enable-background:new 0 0 525.6 364.4;" xml:space="preserve">
<style type="text/css">
	.st0{fill:none;stroke:#000000;stroke-width:2;stroke-miterlimit:10;}
</style>
<path class="st0" d="M228.5,43.1c0,0,27,17,65,0s117-66,174,22s78,304.1-7,285.1c0,0-39.3-11.4-95.3-83.7c0,0-8.1-5.1-21.4-5.6
	H180.5c0,0-14.8-0.5-22.4,10.2c-7.6,10.7-70.8,84-104.3,80.9C20.1,349-1.2,297.8,13,189.1S91.3,24.1,115.9,19S165.8,3.2,228.5,43.1z
	"/>
<circle class="st0" cx="364.3" cy="99" r="27.8"/>
<circle class="st0" cx="432.2" cy="139.2" r="27.8"/>
<circle class="st0" cx="363" cy="174.3" r="27.8"/>
<polygon class="st0" points="133,114.8 133,77.3 172.9,77.3 172.9,115.5 211.8,115.5 211.8,155.4 173.2,155.4 173.2,192.9 
	132.3,192.9 132.3,155.4 94.8,155.4 94.8,114.4 "/>
</svg>
