<?xml version="1.0" encoding="utf-8"?>
<!-- Generator: Adobe Illustrator 21.0.2, SVG Export Plug-In . SVG Version: 6.00 Build 0)  -->
<svg version="1.1" id="Layer_1" xmlns="http://www.w3.org/2000/svg" xmlns:xlink="http://www.w3.org/1999/xlink" x="0px" y="0px"
	 viewBox="0 0 434.4 367.1" style="enable-background:new 0 0 434.4 367.1;" xml:space="preserve">
<style type="text/css">
	.st0{fill:none;stroke:#000000;stroke-width:2;stroke-miterlimit:10;}
	.st1{fill:#FFFFFF;stroke:#000000;stroke-width:2;stroke-miterlimit:10;}
	.st2{fill:none;stroke:#000000;stroke-width:2;stroke-linecap:round;stroke-linejoin:round;stroke-miterlimit:10;}
</style>
<g>
	<path class="st0" d="M403.1,297.7h-373c-9.2,0-16.6-7.4-16.6-16.6V31.4c0-9.2,7.4-16.6,16.6-16.6h373c9.2,0,16.6,7.4,16.6,16.6V281
		C419.8,290.2,412.3,297.7,403.1,297.7z"/>
	<rect x="33.5" y="36.4" class="st1" width="367.8" height="212.3"/>
	<polygon class="st0" points="173.1,306.9 263.2,306.9 263.2,327.3 289.6,353.7 147.6,353.7 173.2,328.1 	"/>
</g>
<g>
	<circle class="st0" cx="277.2" cy="103" r="21.8"/>
	<line class="st2" x1="134.3" y1="151.8" x2="243.3" y2="110.5"/>
	<line class="st2" x1="262.3" y1="128.5" x2="180.1" y2="211.2"/>
	<line class="st2" x1="184.1" y1="165" x2="248.8" y2="122.1"/>
</g>
</svg>
