<?xml version="1.0" encoding="utf-8"?>
<!-- Generator: Adobe Illustrator 21.0.2, SVG Export Plug-In . SVG Version: 6.00 Build 0)  -->
<svg version="1.1" id="Layer_1" xmlns="http://www.w3.org/2000/svg" xmlns:xlink="http://www.w3.org/1999/xlink" x="0px" y="0px"
	 viewBox="0 0 349.5 290.2" style="enable-background:new 0 0 349.5 290.2;" xml:space="preserve">
<style type="text/css">
	.st0{fill:none;stroke:#000000;stroke-width:1.3643;stroke-miterlimit:10;}
</style>
<path class="st0" d="M150.8,62.8c0,0,18.4,11.6,44.4,0s79.8-45,118.7,15s53.2,207.4-4.8,194.5c0,0-26.8-7.8-65-57.1
	c0,0-5.6-3.5-14.6-3.8H118c0,0-10.1-0.3-15.3,6.9c-5.2,7.3-48.3,57.3-71.2,55.2c-22.9-2.1-37.5-37-27.8-111.2S57.2,49.9,74,46.4
	C90.8,42.8,108,35.6,150.8,62.8z"/>
<circle class="st0" cx="243.5" cy="101" r="19"/>
<circle class="st0" cx="289.7" cy="128.4" r="19"/>
<circle class="st0" cx="242.6" cy="152.3" r="19"/>
<polygon class="st0" points="85.7,111.7 85.7,86.1 112.9,86.1 112.9,112.2 139.4,112.2 139.4,139.4 113.1,139.4 113.1,165 85.2,165 
	85.2,139.4 59.6,139.4 59.6,111.5 "/>
</svg>
