<?xml version="1.0" encoding="utf-8"?>
<!-- Generator: Adobe Illustrator 21.0.2, SVG Export Plug-In . SVG Version: 6.00 Build 0)  -->
<svg version="1.1" id="Layer_1" xmlns="http://www.w3.org/2000/svg" xmlns:xlink="http://www.w3.org/1999/xlink" x="0px" y="0px"
	 viewBox="0 0 792 612" style="enable-background:new 0 0 792 612;" xml:space="preserve">
<style type="text/css">
	.st0{fill:none;stroke:#000000;stroke-width:2;stroke-miterlimit:10;}
	.st1{fill:#FFFFFF;stroke:#000000;stroke-width:2;stroke-miterlimit:10;}
	.st2{fill:#FFFFFF;stroke:#000000;stroke-width:2.0038;stroke-miterlimit:10;}
</style>
<path class="st0" d="M267.8,371h62.4c0,0-12.4,36,7.3,52.3s19.1,40.5-3.9,42.7c-23,2.2-37.1-1.7-39.3-3.4
	C292,460.9,267.8,371,267.8,371z"/>
<path class="st1" d="M513.5,142.9c0,0-99.1,106.1-175.8,107.7h-86.3c0,0-32,14.4-28,56.7c4,42.3,16,44.7,29.6,48.7
	c0,0,159.8-14.4,199,48.7c0,0,45.5,62.2,58.3,61.4C523.1,465.3,513.5,142.9,513.5,142.9z"/>
<ellipse class="st1" cx="516" cy="300.7" rx="33.3" ry="133"/>
<ellipse class="st2" cx="520.2" cy="305.3" rx="54.9" ry="163.7"/>
<circle class="st0" cx="489.7" cy="308.6" r="24.3"/>
<path class="st1" d="M273.1,280.9c0,0,90.6,18.4,183.6-49.7v138.7c0,0-101-60.9-182-44.1C274.7,325.8,253.1,298.5,273.1,280.9z"/>
</svg>
