<?xml version="1.0" encoding="utf-8"?>
<!-- Generator: Adobe Illustrator 21.0.2, SVG Export Plug-In . SVG Version: 6.00 Build 0)  -->
<svg version="1.1" id="Layer_1" xmlns="http://www.w3.org/2000/svg" xmlns:xlink="http://www.w3.org/1999/xlink" x="0px" y="0px"
	 viewBox="0 0 792 612" style="enable-background:new 0 0 792 612;" xml:space="preserve">
<style type="text/css">
	.st0{fill:none;stroke:#000000;stroke-width:2;stroke-miterlimit:10;}
	.st1{fill:#FFFFFF;stroke:#000000;stroke-width:2;stroke-miterlimit:10;}
	.st2{fill:none;stroke:#000000;stroke-width:2;stroke-linecap:round;stroke-linejoin:round;stroke-miterlimit:10;}
</style>
<g>
	<path class="st0" d="M582.5,415.7h-373c-9.2,0-16.6-7.4-16.6-16.6V149.5c0-9.2,7.4-16.6,16.6-16.6h373c9.2,0,16.6,7.4,16.6,16.6
		v249.6C599.1,408.2,591.7,415.7,582.5,415.7z"/>
	<rect x="212.9" y="154.5" class="st1" width="367.8" height="212.3"/>
	<polygon class="st0" points="352.4,424.9 442.6,424.9 442.6,445.4 469,471.8 326.9,471.8 352.6,446.1 	"/>
</g>
<g>
	<circle class="st0" cx="456.5" cy="221.1" r="21.8"/>
	<line class="st2" x1="313.6" y1="269.8" x2="422.7" y2="228.5"/>
	<line class="st2" x1="441.7" y1="246.5" x2="359.5" y2="329.3"/>
	<line class="st2" x1="363.5" y1="283" x2="428.1" y2="240.2"/>
</g>
</svg>
