<?xml version="1.0" encoding="utf-8"?>
<!-- Generator: Adobe Illustrator 21.0.2, SVG Export Plug-In . SVG Version: 6.00 Build 0)  -->
<svg version="1.1" id="Layer_1" xmlns="http://www.w3.org/2000/svg" xmlns:xlink="http://www.w3.org/1999/xlink" x="0px" y="0px"
	 viewBox="0 0 349.5 290.2" style="enable-background:new 0 0 349.5 290.2;" xml:space="preserve">
<style type="text/css">
	.st0{fill:#FFFFFF;stroke:#000000;stroke-width:2;stroke-miterlimit:10;}
	.st1{fill:none;stroke:#000000;stroke-width:2;stroke-miterlimit:10;}
</style>
<g>
	<g>
		<circle class="st0" cx="71.9" cy="72.7" r="65.1"/>
		<circle class="st0" cx="176.3" cy="73.2" r="65.1"/>
		<rect x="247.2" y="152.1" class="st1" width="14.2" height="81.7"/>
		<polygon class="st0" points="16.6,130 231.4,130 231.4,257.1 157.2,257.1 157.2,230.7 92.1,230.7 92.1,258.4 16.6,258.4 		"/>
		<polygon class="st1" points="274.5,158 274.5,229.1 340.8,268.2 340.8,117.8 		"/>
		<rect x="100.9" y="239.5" class="st1" width="47.9" height="44.1"/>
	</g>
	<circle class="st1" cx="70.1" cy="74.1" r="14.7"/>
	<circle class="st1" cx="179.5" cy="74.1" r="14.7"/>
	<path class="st0" d="M214.3,165.5h-180c-2.9,0-5.2-2.3-5.2-5.2l0,0c0-2.9,2.3-5.2,5.2-5.2h180c2.9,0,5.2,2.3,5.2,5.2l0,0
		C219.5,163.2,217.2,165.5,214.3,165.5z"/>
	<path class="st0" d="M53.4,197.9H33.7c-2.7,0-4.9-2.2-4.9-4.9v0c0-2.7,2.2-4.9,4.9-4.9h19.7c2.7,0,4.9,2.2,4.9,4.9v0
		C58.3,195.7,56.1,197.9,53.4,197.9z"/>
	<path class="st0" d="M53.4,218.8H33.7c-2.7,0-4.9-2.2-4.9-4.9v0c0-2.7,2.2-4.9,4.9-4.9h19.7c2.7,0,4.9,2.2,4.9,4.9v0
		C58.3,216.6,56.1,218.8,53.4,218.8z"/>
</g>
</svg>
