<?xml version="1.0" encoding="utf-8"?>
<!-- Generator: Adobe Illustrator 21.0.2, SVG Export Plug-In . SVG Version: 6.00 Build 0)  -->
<svg version="1.1" id="Layer_1" xmlns="http://www.w3.org/2000/svg" xmlns:xlink="http://www.w3.org/1999/xlink" x="0px" y="0px"
	 viewBox="0 0 792 612" style="enable-background:new 0 0 792 612;" xml:space="preserve">
<style type="text/css">
	.st0{fill:#FFFFFF;stroke:#000000;stroke-width:2;stroke-miterlimit:10;}
	.st1{fill:none;stroke:#000000;stroke-width:2;stroke-miterlimit:10;}
</style>
<g>
	<g>
		<circle class="st0" cx="335.6" cy="244.3" r="65.1"/>
		<circle class="st0" cx="439.9" cy="244.8" r="65.1"/>
		<rect x="510.9" y="323.7" class="st1" width="14.2" height="81.7"/>
		<polygon class="st0" points="280.3,301.6 495.1,301.6 495.1,428.7 420.9,428.7 420.9,402.2 355.7,402.2 355.7,430 280.3,430 		"/>
		<polygon class="st1" points="538.1,329.6 538.1,400.7 604.5,439.8 604.5,289.3 		"/>
		<rect x="364.6" y="411" class="st1" width="47.9" height="44.1"/>
	</g>
	<circle class="st1" cx="333.7" cy="245.7" r="14.7"/>
	<circle class="st1" cx="443.1" cy="245.7" r="14.7"/>
	<path class="st0" d="M478,337.1h-180c-2.9,0-5.2-2.3-5.2-5.2l0,0c0-2.9,2.3-5.2,5.2-5.2h180c2.9,0,5.2,2.3,5.2,5.2l0,0
		C483.2,334.7,480.8,337.1,478,337.1z"/>
	<path class="st0" d="M317,369.5h-19.7c-2.7,0-4.9-2.2-4.9-4.9l0,0c0-2.7,2.2-4.9,4.9-4.9H317c2.7,0,4.9,2.2,4.9,4.9l0,0
		C322,367.3,319.8,369.5,317,369.5z"/>
	<path class="st0" d="M317,390.4h-19.7c-2.7,0-4.9-2.2-4.9-4.9l0,0c0-2.7,2.2-4.9,4.9-4.9H317c2.7,0,4.9,2.2,4.9,4.9l0,0
		C322,388.2,319.8,390.4,317,390.4z"/>
</g>
</svg>
