<?xml version="1.0" encoding="utf-8"?>
<!-- Generator: Adobe Illustrator 21.0.2, SVG Export Plug-In . SVG Version: 6.00 Build 0)  -->
<svg version="1.1" xmlns="http://www.w3.org/2000/svg" xmlns:xlink="http://www.w3.org/1999/xlink" x="0px" y="0px"
	 viewBox="0 0 792 612" style="enable-background:new 0 0 792 612;" xml:space="preserve">
<style type="text/css">
	.st0{fill:none;stroke:#000000;stroke-width:2;stroke-miterlimit:10;}
	.st1{fill:#FFFFFF;stroke:#000000;stroke-width:2;stroke-miterlimit:10;}
</style>
<g id="Layer_1">
	<path class="st0" d="M394.2,282.9c0.6-20.5-16.6-37.1-37.1-37.1c-20.5,0-37.1,16.6-37.1,37.1c0,0-1.8,22.7,25.4,35.6
		c0,0-10.4,5-10.6,9.9l-16.8,4.2l-50.7-33.2l-18.1,25l56.6,38.7c0,0,6.3,3.8,15.3,0.5l0.2,59.8h67.4v-63.9c0,0,5.6,2.4,7.3,2.4
		l20.7,47.1l29.4-11.5l-24.1-56.1c0,0-1.9-6.3-13.2-8.9c-11.3-2.6-36.5-11.6-36.5-11.6l-3.8-3C368.4,317.9,393.4,308.8,394.2,282.9z
		"/>
	<line class="st0" x1="271.3" y1="127.1" x2="267.3" y2="299.3"/>
	<line class="st0" x1="292.7" y1="205.4" x2="310.4" y2="327"/>
	<line class="st0" x1="429.6" y1="201.6" x2="406.5" y2="331.8"/>
	<line class="st0" x1="452" y1="129.5" x2="438.7" y2="380.3"/>
	<polygon class="st1" points="268.7,102.1 259,120.9 340,159.8 268,194.1 276.5,213.5 364.6,170.8 446.8,209.7 454,191.5 
		389.8,159.1 458.5,126.1 447.5,107.3 365.2,148.1 	"/>
</g>
<g id="Layer_2">
</g>
</svg>
