<?xml version="1.0" encoding="utf-8"?>
<!-- Generator: Adobe Illustrator 21.0.2, SVG Export Plug-In . SVG Version: 6.00 Build 0)  -->
<svg version="1.1" xmlns="http://www.w3.org/2000/svg" xmlns:xlink="http://www.w3.org/1999/xlink" x="0px" y="0px"
	 viewBox="0 0 792 612" style="enable-background:new 0 0 792 612;" xml:space="preserve">
<style type="text/css">
	.st0{fill:none;stroke:#000000;stroke-width:2;stroke-miterlimit:10;}
</style>
<g id="Layer_1">
	<polygon class="st0" points="338.1,99.5 364,99.5 364,158 429.8,158 429.8,180.9 364.6,180.9 364.6,235.2 338.1,235.2 338.1,180.9 
		279,180.9 279,156.8 338.1,156.8 	"/>
	<polygon class="st0" points="520.6,285.4 546.5,285.4 546.5,343.9 612.3,343.9 612.3,366.8 547.1,366.8 547.1,421.1 520.6,421.1 
		520.6,366.8 461.5,366.8 461.5,342.7 520.6,342.7 	"/>
	<polygon class="st0" points="467.4,59.3 481.5,59.3 481.5,91.2 517.4,91.2 517.4,103.7 481.9,103.7 481.9,133.3 467.4,133.3 
		467.4,103.7 435.2,103.7 435.2,90.5 467.4,90.5 	"/>
	<polygon class="st0" points="604.3,201 618.4,201 618.4,232.8 654.2,232.8 654.2,245.3 618.7,245.3 618.7,274.9 604.3,274.9 
		604.3,245.3 572.1,245.3 572.1,232.2 604.3,232.2 	"/>
	
		<rect x="128.6" y="297.3" transform="matrix(0.7071 -0.7071 0.7071 0.7071 -120.2717 364.6599)" class="st0" width="502.9" height="60.3"/>
</g>
<g id="Layer_2">
</g>
</svg>
