<?xml version="1.0" encoding="utf-8"?>
<!-- Generator: Adobe Illustrator 21.0.2, SVG Export Plug-In . SVG Version: 6.00 Build 0)  -->
<svg version="1.1" xmlns="http://www.w3.org/2000/svg" xmlns:xlink="http://www.w3.org/1999/xlink" x="0px" y="0px"
	 viewBox="0 0 792 612" style="enable-background:new 0 0 792 612;" xml:space="preserve">
<style type="text/css">
	.st0{fill:none;stroke:#000000;stroke-width:2;stroke-linecap:round;stroke-linejoin:round;stroke-miterlimit:10;}
</style>
<g id="Layer_1">
	<line class="st0" x1="396.3" y1="115.5" x2="397" y2="525.9"/>
	<line class="st0" x1="308.1" y1="527.1" x2="486.3" y2="527.1"/>
	<path class="st0" d="M173.8,290.5h194.8c0,0-4.8,86.7-97.4,89.1C178.6,382.1,173.8,290.5,173.8,290.5z"/>
	<path class="st0" d="M428.2,387.3h194.8c0,0-4.8,86.7-97.4,89.1C433,478.8,428.2,387.3,428.2,387.3z"/>
	<line class="st0" x1="270" y1="112.1" x2="525" y2="213.3"/>
	<line class="st0" x1="269" y1="112.1" x2="368.5" y2="290.5"/>
	<line class="st0" x1="267.9" y1="114.2" x2="173.8" y2="290.5"/>
	<line class="st0" x1="524.9" y1="212.6" x2="622.9" y2="387.3"/>
	<line class="st0" x1="524.5" y1="212" x2="428.2" y2="387.3"/>
</g>
<g id="Layer_2">
</g>
</svg>
