<?xml version="1.0" encoding="utf-8"?>
<!-- Generator: Adobe Illustrator 21.0.2, SVG Export Plug-In . SVG Version: 6.00 Build 0)  -->
<svg version="1.1" xmlns="http://www.w3.org/2000/svg" xmlns:xlink="http://www.w3.org/1999/xlink" x="0px" y="0px"
	 viewBox="0 0 486.7 481.6" style="enable-background:new 0 0 486.7 481.6;" xml:space="preserve">
<style type="text/css">
	.st0{fill:none;stroke:#000000;stroke-width:2.9745;stroke-miterlimit:10;}
	.st1{fill:#FFFFFF;stroke:#000000;stroke-width:2.9745;stroke-miterlimit:10;}
</style>
<g id="Layer_1">
	<g>
		<path class="st0" d="M302.3,270.1c0.9-30.4-24.7-55.1-55.1-55.1S192,239.6,192,270.1c0,0-2.7,33.8,37.8,52.9
			c0,0-15.5,7.5-15.8,14.7l-25.1,6.2l-75.4-49.3l-26.9,37.2l84.2,57.6c0,0,9.3,5.7,22.7,0.8l0.3,88.9h100.2V384
			c0,0,8.3,3.6,10.9,3.6l30.7,70l43.7-17.1l-35.9-83.4c0,0-2.8-9.3-19.6-13.2c-16.8-3.9-54.3-17.3-54.3-17.3l-5.7-4.4
			C263.9,322.2,301.1,308.6,302.3,270.1z"/>
		<line class="st0" x1="119.5" y1="38.4" x2="113.6" y2="294.6"/>
		<line class="st0" x1="151.4" y1="154.9" x2="177.7" y2="335.7"/>
		<line class="st0" x1="354.9" y1="149.3" x2="320.5" y2="342.8"/>
		<line class="st0" x1="388.3" y1="42" x2="368.5" y2="415"/>
		<polygon class="st1" points="115.6,1.3 101.2,29.2 221.6,87 114.7,138.1 127.2,167 258.2,103.4 380.6,161.2 391.2,134.2 
			295.8,86.1 397.9,36.9 381.6,9 259.2,69.7 		"/>
	</g>
</g>
<g id="Layer_2">
</g>
</svg>
