<?xml version="1.0" encoding="utf-8"?>
<!-- Generator: Adobe Illustrator 21.0.2, SVG Export Plug-In . SVG Version: 6.00 Build 0)  -->
<svg version="1.1" xmlns="http://www.w3.org/2000/svg" xmlns:xlink="http://www.w3.org/1999/xlink" x="0px" y="0px"
	 viewBox="0 0 486.7 481.6" style="enable-background:new 0 0 486.7 481.6;" xml:space="preserve">
<style type="text/css">
	.st0{fill:none;stroke:#000000;stroke-width:3;stroke-miterlimit:10;}
</style>
<g id="Layer_1">
	<polygon class="st0" points="164.3,46.9 190.3,46.9 190.3,105.4 256,105.4 256,128.3 190.9,128.3 190.9,182.6 164.3,182.6 
		164.3,128.3 105.2,128.3 105.2,104.2 164.3,104.2 	"/>
	<polygon class="st0" points="346.8,232.8 372.8,232.8 372.8,291.3 438.5,291.3 438.5,314.2 373.4,314.2 373.4,368.5 346.8,368.5 
		346.8,314.2 287.7,314.2 287.7,290.1 346.8,290.1 	"/>
	<polygon class="st0" points="293.6,6.7 307.8,6.7 307.8,38.6 343.6,38.6 343.6,51.1 308.1,51.1 308.1,80.7 293.6,80.7 293.6,51.1 
		261.4,51.1 261.4,38 293.6,38 	"/>
	<polygon class="st0" points="430.5,148.4 444.6,148.4 444.6,180.3 480.5,180.3 480.5,192.7 445,192.7 445,222.3 430.5,222.3 
		430.5,192.7 398.3,192.7 398.3,179.6 430.5,179.6 	"/>
	
		<rect x="-45.2" y="244.8" transform="matrix(0.7071 -0.7071 0.7071 0.7071 -133.9828 226.3793)" class="st0" width="502.9" height="60.3"/>
</g>
<g id="Layer_2">
</g>
</svg>
