<?xml version="1.0" encoding="utf-8"?>
<!-- Generator: Adobe Illustrator 21.0.2, SVG Export Plug-In . SVG Version: 6.00 Build 0)  -->
<svg version="1.1" xmlns="http://www.w3.org/2000/svg" xmlns:xlink="http://www.w3.org/1999/xlink" x="0px" y="0px"
	 viewBox="0 0 486.7 481.6" style="enable-background:new 0 0 486.7 481.6;" xml:space="preserve">
<style type="text/css">
	.st0{fill:#FFFFFF;stroke:#000000;stroke-width:3.0222;stroke-miterlimit:10;}
	.st1{fill:none;stroke:#000000;stroke-width:3.0222;stroke-miterlimit:10;}
</style>
<g id="Layer_1">
	
		<rect x="331.5" y="-4.1" transform="matrix(-0.7071 -0.7071 0.7071 -0.7071 549.3179 460.3031)" class="st0" width="76.9" height="240.9"/>
	<g>
		<path class="st1" d="M116.9,295.1c-2.9,12.4-5.9,24.4-8.4,36.4c-1.2,5.4-4.2,3.6-7.3,2.7c-30.7-9.4-53.4-28.4-67.5-57.2
			c-8.1-16.5-7.9-16.6,9.8-21.4c7.3-2,14.6-3.6,21.8-5.9c3.9-1.3,5.8-0.8,7.4,3.3c7.4,19.1,21.4,31.2,40.5,37.8
			C115.5,291.4,118.1,291.9,116.9,295.1z"/>
		<path class="st1" d="M296.2,293.8c18.5-0.7,36.7,0.3,54.1,7.5c3.7,1.6,7.4,3.2,10.9,5.2c9.7,5.4,9.7,5.5,3,14.4
			c-5.7,7.7-11.5,15.3-17.1,23.1c-2.4,3.4-4.4,4.6-8.5,2c-9.3-5.8-19.9-6.9-30.5-7.1c-11.1-0.2-22.2-0.3-33.2,0
			c-5.1,0.1-7.3-1.4-7.1-6.8c0.3-10.6,0.3-21.1,0-31.7c-0.1-4.7,1.3-6.9,6.4-6.6C281.6,294,288.9,293.8,296.2,293.8z"/>
		<path class="st1" d="M62.9,223.4c-11.3-0.9-22.5-2.1-33.8-2.6c-4.5-0.2-5.4-1.8-4.9-6c3-23.1,11.9-43.4,27.3-60.9
			c8-9.1,17.5-16.6,27.9-22.8c3.2-1.9,5.1-1.8,6.9,1.9c5.1,10.4,10.3,20.7,15.9,30.8c2.3,4.2,0.9,6-2.7,8.3
			c-16.9,11-26.9,26.6-30.4,46.5C68.3,223.5,68.2,223.5,62.9,223.4z"/>
		<path class="st1" d="M406.3,384.1c0.1,28-8.4,49.8-26.2,68c-3.2,3.3-5.3,4.1-8.7-0.2c-6.9-8.9-14.4-17.4-21.8-26
			c-2.3-2.7-2.9-4.4-0.2-7.5c12.3-14.1,14.7-30.4,9.2-47.9c-1.4-4.6-0.6-6.6,3.7-8.5c9.9-4.4,19.7-8.9,29.2-14
			c4.8-2.5,7-1.8,8.7,3.3C404.2,362.9,406.9,374.5,406.3,384.1z"/>
		<path class="st1" d="M281.8,478.9c-11.3,0-22.6-0.2-34,0.1c-5,0.1-7.3-1-7.1-6.6c0.4-10.6,0.3-21.1,0-31.7c-0.2-5.4,1.9-6.9,7-6.8
			c12.6,0.2,25.2,0,37.7,0c11.8,0,23.6,0.7,35.4-1.1c2.9-0.4,5.8-1,6.9,3.4c3,11.9,6.3,23.8,9.6,35.6c0.9,3.2-0.5,4.1-3.1,4.4
			c-6.5,0.9-12.9,2.2-19.4,2.5C303.9,479.2,292.9,478.9,281.8,478.9C281.8,478.9,281.8,478.9,281.8,478.9z"/>
		<path class="st1" d="M190.2,338.7c-13.1,0-26.1-0.1-39.2,0.1c-4.6,0.1-7-1-6.8-6.2c0.3-10.8,0.2-21.6,0.1-32.4
			c-0.1-4.8,1.6-6.5,6.6-6.4c26.1,0.2,52.3,0.3,78.4,0c5.4-0.1,7,2,6.9,7c-0.2,10.6-0.2,21.1,0,31.7c0.1,5-1.9,6.6-6.7,6.5
			C216.3,338.6,203.2,338.8,190.2,338.7C190.2,338.7,190.2,338.7,190.2,338.7z"/>
		<path class="st1" d="M170,116.7c12.8,0,25.6,0.2,38.5-0.1c5.6-0.1,8.3,1.2,8.1,7.5c-0.4,10.3-0.2,20.6-0.1,30.9
			c0.1,4.6-1.2,6.8-6.4,6.7c-25.6-0.2-51.3-0.1-76.9,0c-3.8,0-5.8-0.7-6.2-5.2c-1-11.2-2.6-22.4-4.1-33.6c-0.6-4.7,1.1-6.2,5.7-6.1
			c13.8,0.2,27.7,0.1,41.5,0.1C170,116.8,170,116.8,170,116.7z"/>
		<path class="st1" d="M162.4,479c-12.8,0-25.6-0.2-38.4,0.1c-4.9,0.1-6.7-1.6-6.6-6.5c0.2-10.8,0.2-21.6,0-32.4
			c-0.1-4.4,1.6-6.3,6.2-6.3c26.4,0.1,52.7,0.1,79.1,0c4.5,0,6.3,1.7,6.2,6.2c-0.2,10.8-0.2,21.6,0,32.4c0.1,4.8-1.6,6.6-6.6,6.5
			C189,478.7,175.7,478.9,162.4,479C162.4,478.9,162.4,478.9,162.4,479z"/>
	</g>
	
		<rect x="332" y="-4.3" transform="matrix(0.7071 -0.7071 0.7071 0.7071 26.3532 295.9918)" class="st0" width="76.9" height="240.9"/>
</g>
<g id="Layer_2">
</g>
</svg>
