<?xml version="1.0" encoding="utf-8"?>
<!-- Generator: Adobe Illustrator 21.0.2, SVG Export Plug-In . SVG Version: 6.00 Build 0)  -->
<svg version="1.1" xmlns="http://www.w3.org/2000/svg" xmlns:xlink="http://www.w3.org/1999/xlink" x="0px" y="0px"
	 viewBox="0 0 792 612" style="enable-background:new 0 0 792 612;" xml:space="preserve">
<style type="text/css">
	.st0{fill:#FFFFFF;stroke:#000000;stroke-width:2;stroke-miterlimit:10;}
	.st1{fill:none;stroke:#000000;stroke-width:2;stroke-miterlimit:10;}
</style>
<g id="Layer_1">
	
		<rect x="443.2" y="115" transform="matrix(-0.7071 -0.7071 0.7071 -0.7071 662.3798 663.837)" class="st0" width="50.9" height="159.4"/>
	<g>
		<path class="st1" d="M301.2,313c-1.9,8.2-3.9,16.1-5.6,24.1c-0.8,3.6-2.8,2.4-4.9,1.8c-20.3-6.2-35.3-18.8-44.7-37.9
			c-5.4-10.9-5.2-11,6.5-14.2c4.8-1.3,9.7-2.4,14.4-3.9c2.6-0.8,3.9-0.5,4.9,2.2c4.9,12.6,14.2,20.6,26.8,25
			C300.3,310.6,302,310.9,301.2,313z"/>
		<path class="st1" d="M419.9,312.1c12.2-0.4,24.3,0.2,35.8,5c2.4,1,4.9,2.1,7.2,3.4c6.4,3.6,6.4,3.6,2,9.5
			c-3.8,5.1-7.6,10.1-11.3,15.3c-1.6,2.2-2.9,3-5.6,1.3c-6.1-3.8-13.1-4.6-20.2-4.7c-7.3-0.2-14.7-0.2-22,0
			c-3.4,0.1-4.8-0.9-4.7-4.5c0.2-7,0.2-14,0-21c-0.1-3.1,0.8-4.5,4.2-4.4C410.2,312.3,415,312.1,419.9,312.1z"/>
		<path class="st1" d="M265.4,265.6c-7.5-0.6-14.9-1.4-22.4-1.7c-3-0.1-3.6-1.2-3.2-4c2-15.3,7.9-28.8,18.1-40.3
			c5.3-6,11.5-11,18.5-15.1c2.1-1.3,3.4-1.2,4.6,1.3c3.3,6.9,6.8,13.7,10.5,20.4c1.5,2.8,0.6,3.9-1.8,5.5
			c-11.2,7.3-17.8,17.6-20.1,30.8C269,265.6,269,265.6,265.4,265.6z"/>
		<path class="st1" d="M492.7,371.9c0,18.5-5.6,33-17.4,45c-2.1,2.2-3.5,2.7-5.7-0.1c-4.6-5.9-9.5-11.5-14.5-17.2
			c-1.5-1.8-1.9-2.9-0.1-5c8.1-9.3,9.7-20.1,6.1-31.7c-1-3.1-0.4-4.4,2.4-5.6c6.5-2.9,13-5.9,19.3-9.2c3.2-1.7,4.6-1.2,5.8,2.2
			C491.3,357.8,493.1,365.6,492.7,371.9z"/>
		<path class="st1" d="M410.3,434.7c-7.5,0-15-0.1-22.5,0.1c-3.3,0.1-4.8-0.7-4.7-4.4c0.3-7,0.2-14,0-21c-0.1-3.6,1.2-4.6,4.6-4.5
			c8.3,0.2,16.6,0,25,0c7.8,0,15.6,0.5,23.4-0.7c1.9-0.3,3.9-0.7,4.6,2.3c2,7.9,4.1,15.7,6.4,23.5c0.6,2.1-0.3,2.7-2.1,2.9
			c-4.3,0.6-8.5,1.5-12.8,1.6C425,434.8,417.6,434.6,410.3,434.7C410.3,434.6,410.3,434.6,410.3,434.7z"/>
		<path class="st1" d="M349.7,341.8c-8.7,0-17.3-0.1-26,0c-3,0-4.6-0.7-4.5-4.1c0.2-7.1,0.2-14.3,0-21.5c-0.1-3.2,1.1-4.3,4.4-4.3
			c17.3,0.2,34.6,0.2,51.9,0c3.6,0,4.6,1.3,4.6,4.6c-0.1,7-0.1,14,0,21c0.1,3.3-1.3,4.3-4.5,4.3C367,341.8,358.3,341.9,349.7,341.8
			C349.7,341.9,349.7,341.9,349.7,341.8z"/>
		<path class="st1" d="M336.3,195c8.5,0,17,0.1,25.5-0.1c3.7-0.1,5.5,0.8,5.3,4.9c-0.3,6.8-0.2,13.6,0,20.5c0,3-0.8,4.5-4.2,4.5
			c-17-0.1-33.9-0.1-50.9,0c-2.5,0-3.9-0.5-4.1-3.4c-0.7-7.4-1.7-14.8-2.7-22.3c-0.4-3.1,0.7-4.1,3.8-4.1
			C318,195.1,327.2,195,336.3,195C336.3,195,336.3,195,336.3,195z"/>
		<path class="st1" d="M331.3,434.7c-8.5,0-17-0.1-25.4,0.1c-3.3,0.1-4.4-1-4.4-4.3c0.1-7.1,0.1-14.3,0-21.4c0-2.9,1-4.2,4.1-4.1
			c17.4,0.1,34.9,0.1,52.4,0c3,0,4.2,1.1,4.1,4.1c-0.1,7.1-0.1,14.3,0,21.4c0.1,3.2-1.1,4.4-4.3,4.3
			C348.9,434.5,340.1,434.6,331.3,434.7C331.3,434.7,331.3,434.7,331.3,434.7z"/>
	</g>
	
		<rect x="443.5" y="114.9" transform="matrix(0.7071 -0.7071 0.7071 0.7071 -0.2406 388.6256)" class="st0" width="50.9" height="159.4"/>
</g>
<g id="Layer_2">
</g>
</svg>
